<?xml version="1.0" encoding="utf-8"?>
<svg viewBox="0 0 340 250" color-interpolation-filters="sRGB" style="margin: auto;" xmlns="http://www.w3.org/2000/svg">
  <rect data-v-0dd9719b="" x="0" y="0" width="100%" height="100%" fill="#fff" fill-opacity="0" class="background"/>
  <rect data-v-0dd9719b="" x="0" y="0" width="100%" height="100%" fill="url(#watermark)" fill-opacity="1" class="watermarklayer"/>
  <g data-v-0dd9719b="" fill="#004f9d" class="icon-text-wrapper icon-svg-group iconsvg" transform="matrix(1.2499690055847168, 0, 0, 1.2372959852218628, 26.96131134033203, 101.41585540771484)" style="">
    <g class="iconsvg-imagesvg" transform="matrix(4.533444, 0, 0, 4.292829, -21.56958, -81.965706)" opacity="1" style="">
      <g>
        <rect fill="#004f9d" fill-opacity="0" stroke-width="2" x="0" y="0" width="60" height="47.06768332862657" class="image-rect"/>
        <svg x="0" y="0" width="60" height="47.06768332862657" filtersec="colorsb9596369376" class="image-svg-svg primary" style="overflow: visible;">
          <svg xmlns="http://www.w3.org/2000/svg" viewBox="0 0 1531.699951171875 1201.56005859375">
            <g>
              <g style="isolation:isolate">
                <path fill="#024c6d" d="M1531.7 989.5l-22.79-12.4-340.75-591.15 22.8 12.4L1531.7 989.5z"/>
                <path fill="#007580" d="M778.14 1095.4l-22.8-12.39 188.14-376.84 22.79 12.4-188.13 376.83z"/>
                <path fill="#024c6d" d="M1190.96 398.35l-22.8-12.4-56.56-98.14 22.79 12.39 56.57 98.15z"/>
                <path fill="#0f3445" d="M1190.96 398.35l-22.8-12.4-34.73-60.26 22.79 12.4 34.74 60.26z"/>
                <path fill="#007580" d="M966.27 718.57l-22.79-12.4 189.95-380.48 22.79 12.4-189.95 380.48z"/>
                <path fill="#113b4e" d="M966.27 718.57l-22.79-12.4 168.12-418.36 22.79 12.39-168.12 418.37z"/>
                <path fill="#00afbf" d="M1156.22 338.09l34.74 60.26L1531.7 989.5l-753.56 105.9 188.13-376.83 189.95-380.48z"/>
                <path fill="#1a5b78" d="M1134.39 300.2l56.57 98.15-34.74-60.26-189.95 380.48 168.12-418.37z"/>
                <path fill="#024c6d" d="M966.28 718.56l-22.8-12.4-187.72-325.68 22.79 12.4 187.73 325.68z"/>
                <path fill="#00356a" d="M756.66 436.74l-22.8-12.4 21.9-43.86 22.79 12.4-21.89 43.86z"/>
                <path fill="#024c6d" d="M778.55 392.88l-22.79-12.4L567.12 53.21l22.79 12.4 188.64 327.27z"/>
                <path fill="#0385bd" d="M968.5 12.4l563.2 977.1-340.74-591.15-56.57-98.15-168.11 418.36-187.73-325.68L589.91 65.61 968.5 12.4z"/>
                <path fill="#0e243b" d="M756.66 436.74l-22.8-12.4L567.12 53.21l22.79 12.4 166.75 371.13z"/>
                <path fill="#183f66" d="M589.91 65.61l188.64 327.27-21.89 43.86L589.91 65.61z"/>
                <path fill="#00356a" d="M22.79 1201.56L0 1189.16 567.12 53.21l22.79 12.4L22.79 1201.56z"/>
                <path fill="#004f9d" d="M589.91 65.61l166.75 371.13 21.89-43.86-377.16 755.47-378.6 53.21L589.91 65.61z"/>
                <path fill="#036b99" d="M589.91 65.61l-22.79-12.4L945.71 0l22.79 12.4-378.59 53.21z"/>
              </g>
            </g>
          </svg>
        </svg>
      </g>
    </g>
    <g transform="translate(67,1.8758430480957031)">
      <g data-gra="path-name" fill-rule="" class="tp-name iconsvg-namesvg" transform="matrix(1,0,0,1,0,0)" opacity="1">
        <g transform="scale(1)">
          <g/>
        </g>
      </g>
      <g data-gra="path-slogan" fill-rule="" class="tp-slogan iconsvg-slogansvg" fill="#004f9d" transform="matrix(1,0,0,1,5,35.15999984741211)" opacity="1">
        <g transform="translate(71.13499927520752,0)">
          <g transform="scale(1)"/>
        </g>
      </g>
    </g>
  </g>
</svg>